<svg width="22" height="22" viewBox="0 0 22 22" fill="none" xmlns="http://www.w3.org/2000/svg">
<path d="M3 11V17C3 18.1046 3.89543 19 5 19H17C18.1046 19 19 18.1046 19 17V5C19 3.89543 18.1046 3 17 3H5C3.89543 3 3 3.89543 3 5V11ZM8.376 8.5296L10.2887 9.32391C10.7808 9.52827 11.3342 9.5278 11.8259 9.3226L13.7264 8.5296C15.3456 7.8512 16.4784 7.416 16.6064 7.416C16.7536 7.416 16.8432 7.4544 16.888 7.5376C16.9584 7.6784 16.984 12.1136 16.9136 12.4656C16.888 12.5744 16.8048 12.728 16.728 12.8048C16.5488 12.9776 14.0272 14.0208 13.848 13.9952C13.7264 13.976 13.72 13.9312 13.72 13.1504V13.1504C13.72 12.6543 14.0183 12.2069 14.4762 12.0161L14.488 12.0112C14.9104 11.8384 15.2752 11.6784 15.3072 11.6464C15.3328 11.6208 15.3456 11.1664 15.3392 10.6288V10.6288C15.33 10.1645 14.8563 9.85503 14.4274 10.0332L13.656 10.3536L13.2017 10.5423C12.467 10.8475 11.983 11.5591 11.9692 12.3545L11.96 12.8816C11.9344 14.4176 11.9152 14.7248 11.832 14.776C11.6784 14.8784 10.328 14.8592 10.2384 14.7568C10.1936 14.6992 10.1616 14.0656 10.1552 12.856L10.1499 12.358C10.1415 11.5576 9.65654 10.8392 8.91726 10.5322L8.472 10.3472C7.5568 9.9696 6.8016 9.656 6.7888 9.656C6.7824 9.656 6.7824 10.104 6.7888 10.6544L6.79123 10.7801C6.80142 11.3065 7.12192 11.777 7.608 11.9792V11.9792L7.65734 11.9997C8.11378 12.1896 8.41553 12.6306 8.4272 13.1248V13.1248C8.4464 14.1104 8.4336 14.1232 7.6848 13.816C5.5472 12.9328 5.368 12.8432 5.272 12.6576C5.1952 12.5104 5.176 12.0624 5.176 10.0464C5.176 8.7088 5.1952 7.576 5.2144 7.5184C5.304 7.288 5.7008 7.416 8.376 8.5296Z" fill="black"/>
</svg>
